<?xml version="1.0" encoding="UTF-8"?><svg xmlns="http://www.w3.org/2000/svg" xmlns:xlink="http://www.w3.org/1999/xlink" width="375" zoomAndPan="magnify" viewBox="0 0 375 374.999991" height="374.999991" preserveAspectRatio="xMidYMid meet" version="1.0"><defs><clipPath id="clip-0"><path d="M 27 3 L 358 3 L 358 370.5 L 27 370.5 Z M 27 3 " clip-rule="nonzero"/></clipPath></defs><g clip-path="url(#clip-0)"><path fill="rgb(88.238525%, 32.159424%, 37.249756%)" d="M 346.261719 177.546875 C 342.160156 170.558594 337.234375 164.207031 331.480469 158.496094 C 325.726562 152.785156 319.335938 147.90625 312.3125 143.855469 C 301.585938 137.628906 290.496094 133.671875 277.972656 131.960938 L 277.972656 87.160156 C 279.480469 86.535156 280.9375 85.800781 282.335938 84.960938 C 283.738281 84.117188 285.066406 83.175781 286.328125 82.136719 C 287.585938 81.097656 288.761719 79.96875 289.851562 78.753906 C 290.945312 77.535156 291.9375 76.246094 292.835938 74.882812 C 293.734375 73.519531 294.527344 72.097656 295.214844 70.613281 C 295.898438 69.132812 296.472656 67.605469 296.929688 66.039062 C 297.386719 64.472656 297.726562 62.878906 297.949219 61.261719 C 298.167969 59.644531 298.265625 58.019531 298.246094 56.386719 C 298.25 55.28125 298.203125 54.175781 298.097656 53.074219 C 297.996094 51.972656 297.835938 50.878906 297.625 49.792969 C 297.414062 48.707031 297.152344 47.636719 296.832031 46.574219 C 296.515625 45.515625 296.148438 44.476562 295.726562 43.453125 C 295.308594 42.429688 294.839844 41.425781 294.320312 40.449219 C 293.800781 39.472656 293.238281 38.523438 292.625 37.601562 C 292.011719 36.679688 291.355469 35.792969 290.65625 34.933594 C 289.957031 34.078125 289.214844 33.257812 288.433594 32.472656 C 287.65625 31.6875 286.835938 30.945312 285.984375 30.242188 C 285.128906 29.539062 284.242188 28.878906 283.324219 28.261719 C 282.402344 27.644531 281.457031 27.074219 280.480469 26.554688 C 279.503906 26.03125 278.503906 25.554688 277.484375 25.132812 C 276.460938 24.707031 275.421875 24.335938 274.359375 24.011719 C 273.300781 23.691406 272.230469 23.421875 271.144531 23.203125 C 270.058594 22.988281 268.964844 22.824219 267.863281 22.714844 C 266.761719 22.609375 265.65625 22.554688 264.550781 22.554688 C 263.4375 22.554688 262.332031 22.609375 261.226562 22.714844 C 260.121094 22.824219 259.023438 22.988281 257.933594 23.203125 C 256.84375 23.417969 255.769531 23.6875 254.707031 24.007812 C 253.644531 24.332031 252.597656 24.703125 251.574219 25.125 C 250.546875 25.550781 249.542969 26.023438 248.5625 26.542969 C 247.582031 27.066406 246.632812 27.636719 245.707031 28.25 C 244.785156 28.867188 243.890625 29.523438 243.03125 30.226562 C 242.171875 30.929688 241.351562 31.671875 240.5625 32.457031 C 239.777344 33.238281 239.03125 34.058594 238.324219 34.914062 C 237.617188 35.769531 236.957031 36.660156 236.335938 37.582031 C 235.71875 38.503906 235.148438 39.453125 234.621094 40.429688 C 234.09375 41.40625 233.617188 42.40625 233.191406 43.429688 C 232.765625 44.453125 232.386719 45.496094 232.0625 46.558594 C 231.738281 47.617188 231.464844 48.691406 231.246094 49.78125 C 231.023438 50.867188 230.859375 51.960938 230.746094 53.066406 C 230.632812 54.167969 230.578125 55.277344 230.574219 56.386719 C 230.574219 70.132812 237.875 81.859375 250.425781 87.160156 L 250.425781 131.710938 C 239.960938 133.222656 230 136.34375 220.546875 141.078125 L 100.507812 50.269531 C 101.351562 47.101562 102.082031 43.816406 102.082031 40.367188 C 102.082031 19.664062 85.289062 2.886719 64.566406 2.886719 C 43.84375 2.886719 27.082031 19.664062 27.082031 40.367188 C 27.082031 61.070312 43.871094 77.847656 64.59375 77.847656 C 71.671875 77.847656 78.214844 75.769531 83.855469 72.375 L 91.71875 78.324219 L 199.40625 155.890625 C 193.703125 161.109375 188.398438 167.054688 184.15625 173.734375 C 175.566406 187.339844 170.3125 202.292969 170.3125 218.617188 L 170.3125 221.984375 C 170.351562 233.144531 172.316406 243.953125 176.210938 254.414062 C 179.46875 263.28125 184.242188 271.359375 190.167969 278.652344 L 154.394531 314.476562 C 143.808594 310.550781 131.929688 313.160156 123.925781 321.152344 C 118.480469 326.566406 115.417969 333.945312 115.445312 341.632812 C 115.476562 349.320312 118.480469 356.640625 123.953125 362.113281 C 129.429688 367.582031 136.757812 370.613281 144.453125 370.613281 C 152.148438 370.613281 159.53125 367.582031 164.949219 362.113281 C 170.371094 356.640625 173.460938 349.320312 173.429688 341.632812 C 173.429688 338.664062 172.980469 335.765625 172.082031 332.9375 L 209.035156 296.019531 C 214.089844 299.523438 219.566406 302.46875 225.460938 304.996094 C 231.523438 307.652344 237.789062 309.660156 244.265625 311.019531 C 250.742188 312.378906 257.285156 313.066406 263.902344 313.074219 L 266.429688 313.074219 C 281.929688 313.074219 296.558594 309.425781 310.289062 301.992188 C 317.347656 298.214844 323.789062 293.578125 329.621094 288.09375 C 335.449219 282.609375 340.460938 276.460938 344.660156 269.648438 C 353.28125 255.902344 358 240.667969 358 223.921875 L 358 223.078125 C 358 206.613281 354.179688 191.433594 346.203125 177.519531 Z M 301.136719 255.03125 C 291.113281 266.167969 279.570312 273.042969 266.542969 273.042969 L 264.070312 273.042969 C 256.628906 273.042969 249.328125 270.996094 242.226562 267.234375 C 238.332031 265.210938 234.761719 262.722656 231.515625 259.769531 C 228.269531 256.816406 225.457031 253.5 223.074219 249.8125 C 217.910156 242.519531 215.101562 234.554688 215.101562 226.109375 L 215.101562 223.585938 C 215.101562 215.28125 216.703125 207.398438 220.71875 199.964844 C 225.011719 191.546875 230.824219 185.515625 238.546875 180.492188 C 246.269531 175.472656 254.214844 173.058594 263.257812 173.058594 L 264.101562 173.058594 C 272.242188 173.058594 280.019531 174.660156 287.320312 178.390625 C 291.019531 180.332031 294.414062 182.707031 297.503906 185.515625 C 300.597656 188.324219 303.285156 191.476562 305.574219 194.96875 C 307.835938 198.472656 309.660156 202.191406 311.042969 206.128906 C 312.421875 210.0625 313.324219 214.105469 313.746094 218.253906 L 313.941406 223.5 C 313.941406 234.917969 309.5625 245.492188 300.828125 255.089844 Z M 301.136719 255.03125 " fill-opacity="1" fill-rule="nonzero"/></g></svg>