<?xml version="1.0" encoding="UTF-8"?>
<!DOCTYPE svg PUBLIC "-//W3C//DTD SVG 1.1//EN" "http://www.w3.org/Graphics/SVG/1.1/DTD/svg11.dtd">
<svg version="1.2" width="66.9mm" height="14mm" viewBox="0 0 6690 1400" preserveAspectRatio="xMidYMid" fill-rule="evenodd" stroke-width="28.222" stroke-linejoin="round" xmlns="http://www.w3.org/2000/svg" xmlns:ooo="http://xml.openoffice.org/svg/export" xmlns:xlink="http://www.w3.org/1999/xlink" xmlns:presentation="http://sun.com/xmlns/staroffice/presentation" xmlns:smil="http://www.w3.org/2001/SMIL20/" xmlns:anim="urn:oasis:names:tc:opendocument:xmlns:animation:1.0" xml:space="preserve">
 <defs class="ClipPathGroup">
  <clipPath id="presentation_clip_path" clipPathUnits="userSpaceOnUse">
   <rect x="0" y="0" width="6690" height="1400"/>
  </clipPath>
  <clipPath id="presentation_clip_path_shrink" clipPathUnits="userSpaceOnUse">
   <rect x="6" y="1" width="6677" height="1398"/>
  </clipPath>
 </defs>
 <defs class="TextShapeIndex">
  <g ooo:slide="id1" ooo:id-list="id3"/>
 </defs>
 <defs class="EmbeddedBulletChars">
  <g id="bullet-char-template-57356" transform="scale(0.00048828125,-0.00048828125)">
   <path d="M 580,1141 L 1163,571 580,0 -4,571 580,1141 Z"/>
  </g>
  <g id="bullet-char-template-57354" transform="scale(0.00048828125,-0.00048828125)">
   <path d="M 8,1128 L 1137,1128 1137,0 8,0 8,1128 Z"/>
  </g>
  <g id="bullet-char-template-10146" transform="scale(0.00048828125,-0.00048828125)">
   <path d="M 174,0 L 602,739 174,1481 1456,739 174,0 Z M 1358,739 L 309,1346 659,739 1358,739 Z"/>
  </g>
  <g id="bullet-char-template-10132" transform="scale(0.00048828125,-0.00048828125)">
   <path d="M 2015,739 L 1276,0 717,0 1260,543 174,543 174,936 1260,936 717,1481 1274,1481 2015,739 Z"/>
  </g>
  <g id="bullet-char-template-10007" transform="scale(0.00048828125,-0.00048828125)">
   <path d="M 0,-2 C -7,14 -16,27 -25,37 L 356,567 C 262,823 215,952 215,954 215,979 228,992 255,992 264,992 276,990 289,987 310,991 331,999 354,1012 L 381,999 492,748 772,1049 836,1024 860,1049 C 881,1039 901,1025 922,1006 886,937 835,863 770,784 769,783 710,716 594,584 L 774,223 C 774,196 753,168 711,139 L 727,119 C 717,90 699,76 672,76 641,76 570,178 457,381 L 164,-76 C 142,-110 111,-127 72,-127 30,-127 9,-110 8,-76 1,-67 -2,-52 -2,-32 -2,-23 -1,-13 0,-2 Z"/>
  </g>
  <g id="bullet-char-template-10004" transform="scale(0.00048828125,-0.00048828125)">
   <path d="M 285,-33 C 182,-33 111,30 74,156 52,228 41,333 41,471 41,549 55,616 82,672 116,743 169,778 240,778 293,778 328,747 346,684 L 369,508 C 377,444 397,411 428,410 L 1163,1116 C 1174,1127 1196,1133 1229,1133 1271,1133 1292,1118 1292,1087 L 1292,965 C 1292,929 1282,901 1262,881 L 442,47 C 390,-6 338,-33 285,-33 Z"/>
  </g>
  <g id="bullet-char-template-9679" transform="scale(0.00048828125,-0.00048828125)">
   <path d="M 813,0 C 632,0 489,54 383,161 276,268 223,411 223,592 223,773 276,916 383,1023 489,1130 632,1184 813,1184 992,1184 1136,1130 1245,1023 1353,916 1407,772 1407,592 1407,412 1353,268 1245,161 1136,54 992,0 813,0 Z"/>
  </g>
  <g id="bullet-char-template-8226" transform="scale(0.00048828125,-0.00048828125)">
   <path d="M 346,457 C 273,457 209,483 155,535 101,586 74,649 74,723 74,796 101,859 155,911 209,963 273,989 346,989 419,989 480,963 531,910 582,859 608,796 608,723 608,648 583,586 532,535 482,483 420,457 346,457 Z"/>
  </g>
  <g id="bullet-char-template-8211" transform="scale(0.00048828125,-0.00048828125)">
   <path d="M -4,459 L 1135,459 1135,606 -4,606 -4,459 Z"/>
  </g>
  <g id="bullet-char-template-61548" transform="scale(0.00048828125,-0.00048828125)">
   <path d="M 173,740 C 173,903 231,1043 346,1159 462,1274 601,1332 765,1332 928,1332 1067,1274 1183,1159 1299,1043 1357,903 1357,740 1357,577 1299,437 1183,322 1067,206 928,148 765,148 601,148 462,206 346,322 231,437 173,577 173,740 Z"/>
  </g>
 </defs>
 <g>
  <g id="id2" class="Master_Slide">
   <g id="bg-id2" class="Background"/>
   <g id="bo-id2" class="BackgroundObjects"/>
  </g>
 </g>
 <g class="SlideGroup">
  <g>
   <g id="container-id1">
    <g id="id1" class="Slide" clip-path="url(#presentation_clip_path)">
     <g class="Page">
      <g class="Graphic">
       <g id="id3">
        <rect class="BoundingBox" stroke="none" fill="none" x="0" y="0" width="6694" height="3836"/>
        <path fill="rgb(220,151,80)" stroke="none" d="M 575,122 L 87,122 87,1350 575,1350 C 980,1350 1184,1045 1184,738 1184,431 980,122 575,122 L 575,122 Z M 575,1064 L 385,1064 385,406 575,406 C 782,406 887,576 887,738 887,899 782,1064 575,1064 L 575,1064 Z"/>
        <path fill="rgb(220,151,80)" stroke="none" d="M 2241,873 C 2241,548 1995,387 1751,387 1503,387 1259,548 1259,873 1259,1198 1503,1361 1749,1361 1946,1361 2140,1257 2212,1050 L 1912,1050 C 1872,1094 1814,1115 1752,1115 1668,1113 1582,1070 1549,982 L 2230,982 C 2237,947 2241,912 2241,873 L 2241,873 Z M 1939,766 L 1559,766 C 1588,673 1663,627 1746,627 1835,627 1912,671 1939,766 L 1939,766 Z"/>
        <path fill="rgb(220,151,80)" stroke="none" d="M 2934,1354 L 3294,445 3294,401 3008,401 2888,704 2822,947 2753,704 2635,401 2348,401 2348,445 2707,1354 2934,1354 Z"/>
        <path fill="rgb(220,151,80)" stroke="none" d="M 4402,1350 L 4402,122 4101,122 4101,585 3743,585 3743,122 3443,122 3443,1350 3743,1350 3743,875 4101,875 4101,1350 4402,1350 Z"/>
        <path fill="rgb(220,151,80)" stroke="none" d="M 5165,1254 L 5165,1350 5444,1350 5444,401 5151,401 5151,917 C 5151,1043 5065,1113 4983,1113 4907,1113 4833,1054 4833,922 L 4833,401 4554,401 4554,924 C 4552,1163 4628,1363 4907,1363 5005,1363 5100,1336 5165,1254 L 5165,1254 Z"/>
        <path fill="rgb(220,151,80)" stroke="none" d="M 6139,385 C 6046,385 5955,415 5892,487 L 5892,101 5618,101 5618,1350 5892,1350 5892,1256 C 5957,1336 6052,1363 6143,1363 6443,1363 6599,1124 6599,862 6599,603 6448,385 6139,385 L 6139,385 Z M 6109,1098 C 5990,1098 5892,996 5892,869 5892,743 5990,640 6109,640 6252,640 6322,754 6322,869 6322,984 6250,1098 6109,1098 L 6109,1098 Z"/>
       </g>
      </g>
     </g>
    </g>
   </g>
  </g>
 </g>
</svg>